<?xml version="1.0" encoding="utf-8"?>
<!-- Generator: Adobe Illustrator 19.2.1, SVG Export Plug-In . SVG Version: 6.00 Build 0)  -->
<svg version="1.1" id="Layer_1" xmlns="http://www.w3.org/2000/svg" xmlns:xlink="http://www.w3.org/1999/xlink" x="0px" y="0px"
	 viewBox="0 0 512 512" style="enable-background:new 0 0 512 512;" xml:space="preserve">
<style type="text/css">
	.st0{fill:#E8E8E8;}
	.st1{fill:#D8D8D8;}
	.st2{fill:#A26BB0;}
	.st3{fill:#F5F5F5;}
</style>
<path class="st0" d="M180,84h176c4.4,0,8,3.6,8,8v328c0,4.4-3.6,8-8,8H108c-4.4,0-8-3.6-8-8V168L180,84z"/>
<path class="st1" d="M172,168c4.4,0,8-3.6,8-8V84l-80,84H172z"/>
<path class="st2" d="M345.2,381.3c0,10.8-8.9,19.7-19.7,19.7h-177c-10.8,0-19.7-8.9-19.7-19.7v-78.7c0-10.8,8.9-19.7,19.7-19.7h177
	c10.8,0,19.7,8.9,19.7,19.7V381.3z"/>
<g>
	<path class="st3" d="M193.8,353.9l12.5,3.9c-1.9,6.9-5.1,12.1-9.5,15.5s-10.1,5.1-16.9,5.1c-8.5,0-15.4-2.9-20.8-8.7
		c-5.4-5.8-8.2-13.7-8.2-23.7c0-10.6,2.7-18.8,8.2-24.7c5.5-5.9,12.7-8.8,21.6-8.8c7.8,0,14.1,2.3,19,6.9c2.9,2.7,5.1,6.6,6.5,11.7
		l-12.7,3c-0.8-3.3-2.3-5.9-4.7-7.8s-5.3-2.9-8.7-2.9c-4.7,0-8.5,1.7-11.5,5.1c-2.9,3.4-4.4,8.9-4.4,16.5c0,8.1,1.4,13.8,4.3,17.2
		c2.9,3.4,6.7,5.1,11.3,5.1c3.4,0,6.3-1.1,8.8-3.3C190.9,362,192.7,358.5,193.8,353.9z"/>
	<path class="st3" d="M214,356.6l12.5-1.2c0.8,4.2,2.3,7.3,4.6,9.2c2.3,2,5.4,2.9,9.3,2.9c4.1,0,7.3-0.9,9.4-2.6
		c2.1-1.7,3.2-3.8,3.2-6.1c0-1.5-0.5-2.8-1.3-3.9c-0.9-1.1-2.4-2-4.6-2.7c-1.5-0.5-4.9-1.4-10.3-2.8c-6.9-1.7-11.7-3.8-14.5-6.3
		c-3.9-3.5-5.9-7.8-5.9-12.8c0-3.2,0.9-6.3,2.8-9.1c1.8-2.8,4.5-5,7.9-6.5c3.5-1.5,7.6-2.2,12.5-2.2c8,0,14,1.7,18,5.3
		c4,3.5,6.1,8.2,6.3,14l-12.8,0.6c-0.5-3.3-1.7-5.6-3.5-7s-4.5-2.1-8.1-2.1c-3.7,0-6.7,0.8-8.8,2.3c-1.4,1-2,2.3-2,3.9
		c0,1.5,0.6,2.8,1.9,3.9c1.6,1.4,5.6,2.8,11.8,4.3s10.9,3,13.9,4.6c3,1.6,5.3,3.7,7,6.5c1.7,2.7,2.5,6.1,2.5,10.1
		c0,3.6-1,7.1-3,10.2c-2,3.2-4.9,5.5-8.6,7.1c-3.7,1.5-8.3,2.3-13.8,2.3c-8,0-14.2-1.9-18.5-5.6C217.4,369.1,214.8,363.7,214,356.6z
		"/>
	<path class="st3" d="M292.8,377.3L270,313.7h13.9l16.1,47.1l15.6-47.1h13.6l-22.8,63.6L292.8,377.3L292.8,377.3z"/>
</g>
</svg>
