<svg id="Layer_1" data-name="Layer 1" xmlns="http://www.w3.org/2000/svg" viewBox="0 0 333.8 365.98"><defs><style>.cls-1{fill:#e8e8e8;}.cls-2{fill:#d8d9d8;}.cls-3{fill:#d8a4a5;}.cls-4{fill:#fff;}</style></defs><title>1</title><path class="cls-1" d="M121.88,11.4h176a8,8,0,0,1,8,8v328a8,8,0,0,1-8,8h-248a8,8,0,0,1-8-8V95.4Z"/><path class="cls-2" d="M113.88,95.4a8,8,0,0,0,8-8v-76l-80,84h72Z"/><path class="cls-3" d="M287.08,308.7a19.8,19.8,0,0,1-19.7,19.7h-177a19.8,19.8,0,0,1-19.7-19.7V230a19.8,19.8,0,0,1,19.7-19.7h177a19.8,19.8,0,0,1,19.7,19.7v78.7Z"/><path class="cls-4" d="M119.63,252.79H103.2V242.66h44.91v10.13H131.68v44.68H119.63V252.79Z"/><path class="cls-4" d="M167.84,268.76l-17.66-26.1h14l10.75,17.5L186,242.66h13.21l-17.58,26.18,19.12,28.64H186.42l-12-19-12.21,19H148.72Z"/><path class="cls-4" d="M217.74,252.79H201.31V242.66h44.91v10.13H229.8v44.68H217.74V252.79Z"/></svg>