<svg id="Layer_1" data-name="Layer 1" xmlns="http://www.w3.org/2000/svg" viewBox="0 0 333.8 365.98"><defs><style>.cls-1{fill:#e8e8e8;}.cls-2{fill:#d8d9d8;}.cls-3{fill:#f99f39;}.cls-4{fill:#fff;}</style></defs><title>1</title><path class="cls-1" d="M123.88,9.9h176a8,8,0,0,1,8,8v328a8,8,0,0,1-8,8h-248a8,8,0,0,1-8-8V93.9Z"/><path class="cls-2" d="M115.88,93.9a8,8,0,0,0,8-8V9.9l-80,84h72Z"/><path class="cls-3" d="M289.08,307.2a19.8,19.8,0,0,1-19.7,19.7h-177a19.8,19.8,0,0,1-19.7-19.7V228.5a19.8,19.8,0,0,1,19.7-19.7h177a19.8,19.8,0,0,1,19.7,19.7v78.7Z"/><path class="cls-4" d="M121.93,267.26l-17.66-26.1h14L129,258.66l11.13-17.5h13.21l-17.58,26.18L154.87,296H140.51l-12-19-12.21,19H102.81Z"/><path class="cls-4" d="M159.7,241.16h17l12.82,37.7h0.15l12.13-37.7h17V296H207.46V257.13h-0.15L193.87,296h-9.29l-13.44-38.46H171V296H159.7V241.16Z"/><path class="cls-4" d="M229.34,241.16h12.05v44.68h26.72V296H229.34V241.16Z"/></svg>