<svg id="Layer_1" data-name="Layer 1" xmlns="http://www.w3.org/2000/svg" viewBox="0 0 333.8 365.98"><defs><style>.cls-1{fill:#e8e8e8;}.cls-2{fill:#d8d9d8;}.cls-3{fill:#5fc8d6;}.cls-4{fill:#fff;}</style></defs><title>1</title><path class="cls-1" d="M108.39,14.4h176a8,8,0,0,1,8,8v328a8,8,0,0,1-8,8h-248a8,8,0,0,1-8-8V98.4Z"/><path class="cls-2" d="M100.39,98.4a8,8,0,0,0,8-8v-76l-80,84h72Z"/><path class="cls-3" d="M273.59,311.7a19.8,19.8,0,0,1-19.7,19.7h-177a19.8,19.8,0,0,1-19.7-19.7V233a19.8,19.8,0,0,1,19.7-19.7h177a19.8,19.8,0,0,1,19.7,19.7v78.7Z"/><path class="cls-4" d="M110.46,291l29.41-35.16h-27.1V245.66h43.15v9.52l-29.41,35.16h30.17v10.13H110.46V291Z"/><path class="cls-4" d="M163.75,245.66H175.8v54.82H163.75V245.66Z"/><path class="cls-4" d="M186.39,245.66h24.72q9.6,0,14.28,5.07a19.06,19.06,0,0,1,0,25q-4.68,5.07-14.28,5.07H198.45v19.65H186.39V245.66Zm12.05,25.8h9.37a14.88,14.88,0,0,0,7.75-1.73q2.84-1.73,2.84-6.49t-2.84-6.49a14.89,14.89,0,0,0-7.75-1.73h-9.37v16.43Z"/></svg>